<?xml version="1.0" encoding="UTF-8"?>
<svg xmlns="http://www.w3.org/2000/svg" width="64" height="64" viewBox="0 0 62 62" fill="none">
  <!-- Original Paths from Syrma SGS Logo but adjusted for square icon -->
  <!-- Upper 'S' part -->
  <path d="M19.8556 4.2821C19.2468 4.60596 18.7813 5.14571 18.459 5.8294C17.7787 7.19679 17.3848 8.7081 17.3848 10.3274C17.3848 16.8404 22.2189 19.7911 32.7109 23.7133C40.9111 26.7719 45.602 29.3268 49.1829 34.0407C51.1523 36.6675 50.7942 37.2792 51.2956 36.8834C51.3672 36.8114 51.2956 34.3285 51.2956 34.3285V5.46957C51.2956 5.46957 51.5462 3.92226 49.9348 3.92226C46.8195 3.92226 21.9325 3.92226 21.9325 3.92226C21.9325 3.92226 20.6792 3.81431 19.8556 4.2821Z" fill="#0B70B7"></path>
  <!-- Lower 'S' part -->
  <path d="M32.675 56.9263C33.3554 56.5664 33.8209 55.9907 34.179 55.271C34.9309 53.7957 35.3248 52.1764 35.3248 50.4492C35.3248 43.4324 31.5649 40.4097 20.321 36.1996C11.5479 32.9251 6.57047 30.0824 2.73895 25.0087C0.626236 22.202 0.984323 21.5543 0.483002 21.9501C0.411384 22.022 0.483002 24.6848 0.483002 24.6848V55.6669C0.483002 55.6669 0.196533 57.3221 1.95116 57.3221C5.31717 57.3221 30.4548 57.3221 30.4548 57.3221C30.4548 57.3221 31.744 57.3941 32.675 56.9263Z" fill="#004F7D"></path>
</svg>
