<?xml version="1.0" encoding="UTF-8"?> <svg xmlns="http://www.w3.org/2000/svg" width="190" height="62" viewBox="0 0 190 62" fill="none"><path d="M79.6917 6.90893C77.579 5.50556 74.7501 4.78589 71.2766 4.78589C68.0539 4.78589 65.404 5.50556 63.4346 6.90893C61.4651 8.3123 60.4624 10.1115 60.4624 12.2345C60.4624 13.458 60.8205 14.5375 61.5009 15.4731C62.1812 16.4086 63.2197 17.2363 64.5088 17.884C65.8337 18.5677 67.5525 19.1074 69.5936 19.5032C71.7064 19.935 73.1029 20.3309 73.8907 20.7267C74.7143 21.1585 75.1082 21.7342 75.1082 22.4539C75.1082 23.2096 74.7859 23.7853 74.1772 24.2531C73.5684 24.6849 72.6732 24.9368 71.4915 24.9368C70.2382 24.9368 69.1639 24.6489 68.3403 24.1451C67.5525 23.6414 67.087 22.8137 67.0154 21.7342H59.603C59.6388 23.0297 60.1402 24.2891 61.0712 25.4765C62.038 26.736 63.4346 27.7435 65.1892 28.4632C66.9438 29.1829 68.9849 29.5787 71.2408 29.5787C74.6427 29.5787 77.4357 28.895 79.5484 27.5276C81.6612 26.1962 82.6996 24.433 82.6996 22.31C82.6996 19.1794 80.7301 16.9844 76.7912 15.7609C75.6095 15.4011 74.213 15.0772 72.6374 14.7894C71.026 14.5015 69.8443 14.1776 69.0923 13.7458C68.3045 13.2781 67.9106 12.6663 67.9106 11.9467C67.9106 11.227 68.2329 10.6153 68.8775 10.1475C69.522 9.67968 70.274 9.46378 71.205 9.46378C73.4968 9.46378 74.7143 10.4353 74.7859 12.3785H82.7354C82.7712 10.0755 81.697 8.27631 79.6917 6.90893Z" fill="#15385F"></path><path d="M99.9595 5.14575L94.5524 15.653L89.1811 5.14575H81.7329L91.079 20.7267V29.4708H97.8826V21.0146L97.9542 20.9066L107.444 5.14575H99.9595Z" fill="#15385F"></path><path d="M74.607 50.7372C74.607 50.0895 74.2489 49.5857 73.497 49.1899C72.745 48.794 71.3484 48.3982 69.2715 47.9664C67.1946 47.5346 65.4758 46.9949 64.1151 46.3112C62.7544 45.6275 61.7159 44.7999 61.0356 43.8283C60.3194 42.8567 59.9613 41.7412 59.9613 40.4818C59.9613 38.2508 60.9639 36.4156 63.005 34.9763C65.0461 33.5369 67.696 32.8173 70.9904 32.8173C74.5354 32.8173 77.3643 33.5369 79.5128 34.9763C81.6613 36.4156 82.7356 38.3228 82.7356 40.6977H74.3564C74.3564 38.7546 73.2105 37.783 70.9546 37.783C70.0951 37.783 69.3432 37.9989 68.7344 38.4307C68.1257 38.8625 67.8392 39.4383 67.8392 40.086C67.8392 40.7697 68.1973 41.3094 68.9135 41.7412C69.6296 42.173 70.8113 42.4969 72.3869 42.7848C73.9625 43.0366 75.359 43.3605 76.5765 43.7563C80.5871 45.0158 82.6282 47.2467 82.6282 50.5213C82.6282 52.7523 81.5539 54.5514 79.3696 55.9188C77.1853 57.3222 74.3922 58.0059 70.9546 58.0059C68.6628 58.0059 66.6217 57.646 64.8313 56.8904C63.0408 56.1347 61.6443 55.1272 60.6417 53.8318C59.639 52.5364 59.1377 51.205 59.1377 49.7656H66.944C66.9798 50.8811 67.3737 51.7087 68.1973 52.2125C68.9851 52.7163 69.9877 53.0041 71.241 53.0041C72.3869 53.0041 73.2463 52.7882 73.8192 52.3924C74.3206 51.9246 74.607 51.3849 74.607 50.7372Z" fill="#207FBF"></path><path d="M126.637 50.7372C126.637 50.0895 126.279 49.5857 125.527 49.1899C124.775 48.794 123.378 48.3982 121.301 47.9664C119.224 47.5346 117.506 46.9949 116.145 46.3112C114.784 45.6275 113.746 44.7999 113.065 43.8283C112.349 42.8567 111.991 41.7412 111.991 40.4818C111.991 38.2508 112.994 36.4156 115.035 34.9763C117.076 33.5369 119.726 32.8173 123.02 32.8173C126.565 32.8173 129.394 33.5369 131.543 34.9763C133.691 36.4156 134.765 38.3228 134.765 40.6977H126.386C126.386 38.7546 125.24 37.783 122.984 37.783C122.125 37.783 121.373 37.9989 120.764 38.4307C120.155 38.8625 119.869 39.4383 119.869 40.086C119.869 40.7697 120.227 41.3094 120.943 41.7412C121.659 42.173 122.841 42.4969 124.417 42.7848C125.992 43.0366 127.389 43.3605 128.606 43.7563C132.617 45.0158 134.658 47.2467 134.658 50.5213C134.658 52.7523 133.584 54.5514 131.399 55.9188C129.215 57.3222 126.422 58.0059 122.984 58.0059C120.693 58.0059 118.651 57.646 116.861 56.8904C115.071 56.1347 113.674 55.1272 112.671 53.8318C111.669 52.5364 111.167 51.205 111.167 49.7656H118.974C119.01 50.8811 119.403 51.7087 120.227 52.2125C121.015 52.7163 122.017 53.0041 123.271 53.0041C124.417 53.0041 125.276 52.7882 125.849 52.3924C126.35 51.9246 126.637 51.3849 126.637 50.7372Z" fill="#207FBF"></path><path d="M98.4197 33.0331C89.8614 33.0331 83.6665 38.2867 83.6665 45.5194C83.6665 52.7882 89.6465 58.0778 97.8825 58.0778C101.607 58.0778 106.226 56.8183 109.162 54.9832V45.2676L109.126 45.0517V44.6918H97.3096V48.9019H102.717V51.2768L102.573 51.3128C101.07 51.9246 99.5655 52.2844 98.4197 52.2844C94.4091 52.2844 91.3654 49.3697 91.3654 45.4835C91.3654 41.6332 94.3733 38.7185 98.348 38.7185C100.64 38.7185 103.29 39.7261 105.188 41.3453L109.413 36.5595C106.656 34.4364 102.359 33.0331 98.4197 33.0331Z" fill="#207FBF"></path><path d="M19.8556 4.2821C19.2468 4.60596 18.7813 5.14571 18.459 5.8294C17.7787 7.19679 17.3848 8.7081 17.3848 10.3274C17.3848 16.8404 22.2189 19.7911 32.7109 23.7133C40.9111 26.7719 45.602 29.3268 49.1829 34.0407C51.1523 36.6675 50.7942 37.2792 51.2956 36.8834C51.3672 36.8114 51.2956 34.3285 51.2956 34.3285V5.46957C51.2956 5.46957 51.5462 3.92226 49.9348 3.92226C46.8195 3.92226 21.9325 3.92226 21.9325 3.92226C21.9325 3.92226 20.6792 3.81431 19.8556 4.2821Z" fill="#0B70B7"></path><path d="M32.675 56.9263C33.3554 56.5664 33.8209 55.9907 34.179 55.271C34.9309 53.7957 35.3248 52.1764 35.3248 50.4492C35.3248 43.4324 31.5649 40.4097 20.321 36.1996C11.5479 32.9251 6.57047 30.0824 2.73895 25.0087C0.626236 22.202 0.984323 21.5543 0.483002 21.9501C0.411384 22.022 0.483002 24.6848 0.483002 24.6848V55.6669C0.483002 55.6669 0.196533 57.3221 1.95116 57.3221C5.31717 57.3221 30.4548 57.3221 30.4548 57.3221C30.4548 57.3221 31.744 57.3941 32.675 56.9263Z" fill="#004F7D"></path><path d="M119.01 20.7987L123.772 29.4348H130.504L124.739 19.2873L124.954 19.2154C126.529 18.5317 127.747 17.6321 128.463 16.5526C129.215 15.4731 129.573 14.0697 129.573 12.3785C129.573 10.0755 128.678 8.27631 126.923 7.01688C125.133 5.75745 122.626 5.10974 119.439 5.10974H108.912V29.4348H115.071V20.6907H118.938L119.01 20.7987ZM115.071 9.28386H119.439C120.728 9.28386 121.731 9.60771 122.376 10.2554C123.056 10.9031 123.378 11.8027 123.378 12.9182C123.378 14.0337 123.056 14.9333 122.376 15.545C121.695 16.1568 120.728 16.4806 119.404 16.4806H115.071V9.28386Z" fill="#15385F"></path><path d="M156.107 23.8573V29.4348H162.266V5.10974H153.959L147.764 22.7058L141.533 5.10974H133.226V29.4348H139.42V23.8573L138.704 10.7232L145.723 29.4348H149.805L156.788 10.7232L156.107 23.8573Z" fill="#15385F"></path><path d="M181.388 24.7928L182.964 29.3987H189.588L179.669 5.07373H173.761L163.914 29.3987H170.502L172.078 24.7928H181.388ZM176.733 11.227L179.956 20.6187H173.51L176.733 11.227Z" fill="#15385F"></path></svg> 