<?xml version="1.0" standalone="no"?>
<!DOCTYPE svg PUBLIC "-//W3C//DTD SVG 20010904//EN"
 "http://www.w3.org/TR/2001/REC-SVG-20010904/DTD/svg10.dtd">
<svg version="1.0" xmlns="http://www.w3.org/2000/svg"
 width="1162.000000pt" height="352.000000pt" viewBox="0 0 1162.000000 352.000000"
 preserveAspectRatio="xMidYMid meet">

<g transform="translate(0.000000,352.000000) scale(0.100000,-0.100000)" stroke="none">
<path fill="#6f42c1" d="M350 3401 c-85 -18 -161 -71 -206 -143 -56 -88 -54 -39 -54 -1494 0
-1319 0 -1343 20 -1407 26 -83 96 -163 172 -198 l53 -24 1370 0 1370 0 55 26
c70 33 126 89 159 159 l26 55 0 1395 0 1395 -22 47 c-30 66 -96 133 -162 165
l-56 28 -1345 1 c-740 1 -1361 -1 -1380 -5z m1786 -600 c23 -10 50 -32 62 -48
45 -63 46 -95 33 -589 -7 -254 -10 -506 -6 -560 9 -122 29 -226 52 -260 25
-39 152 -120 250 -160 48 -19 103 -45 121 -57 76 -50 97 -170 43 -244 -63 -86
-139 -94 -300 -29 -290 119 -450 277 -497 493 -33 152 -38 334 -23 859 l14
501 28 36 c55 73 142 95 223 58z m-862 -49 c22 -15 49 -45 60 -67 20 -39 21
-50 16 -345 -10 -593 -6 -878 13 -948 9 -34 24 -73 32 -86 25 -38 140 -111
240 -153 50 -20 107 -48 128 -61 79 -48 100 -171 43 -247 -64 -83 -148 -91
-301 -26 -217 93 -358 200 -432 331 -84 148 -98 289 -88 845 14 738 9 660 39
705 60 90 162 111 250 52z"/>
<path fill="#fff" d="M11230 2691 c-71 -23 -131 -74 -166 -141 -26 -49 -25 -161 1 -214 44
-91 147 -156 246 -156 70 0 165 44 209 98 105 127 64 317 -85 394 -43 23 -161
34 -205 19z m194 -71 c109 -74 128 -220 43 -317 -101 -115 -283 -88 -348 52
-46 100 4 234 106 281 48 23 154 14 199 -16z"/>
<path fill="#fff" d="M11200 2445 l0 -145 40 0 40 0 0 60 c0 43 4 60 13 60 7 0 26 -27 42
-60 29 -60 29 -60 72 -60 l43 0 -30 60 -31 61 31 30 c29 29 37 60 24 94 -12
31 -59 45 -154 45 l-90 0 0 -145z m163 73 c9 -26 -6 -38 -44 -38 -35 0 -39 3
-39 25 0 22 4 25 39 25 23 0 41 -5 44 -12z"/>
<path fill="#fff" d="M8690 1800 l0 -710 100 0 100 0 0 710 0 710 -100 0 -100 0 0 -710z"/>
<path fill="#fff" d="M9660 1800 l0 -710 100 0 100 0 0 215 c0 118 3 215 8 215 4 0 92 -97
195 -215 l188 -215 131 0 130 0 -69 78 c-39 42 -136 151 -217 242 l-148 165
197 193 198 192 -123 0 -123 0 -181 -177 -181 -178 -3 453 -2 452 -100 0 -100
0 0 -710z"/>
<path fill="#fff" d="M9212 2440 c-67 -41 -78 -135 -23 -191 73 -73 195 -31 208 71 14 105
-95 175 -185 120z"/>
<path fill="#fff" d="M3870 1760 l0 -670 355 0 355 0 0 100 0 100 -245 0 -245 0 0 570 0
570 -110 0 -110 0 0 -670z"/>
<path fill="#fff" d="M5015 1976 c-162 -39 -291 -173 -326 -337 -19 -88 -7 -242 26 -321
67 -167 214 -259 411 -259 142 -1 245 35 330 113 44 41 120 136 113 142 -2 2
-26 16 -54 31 -27 16 -64 36 -81 47 l-31 18 -29 -46 c-54 -84 -130 -124 -241
-124 -107 0 -175 42 -219 135 -13 28 -24 65 -24 82 l0 33 343 2 342 3 3 39 c9
112 -44 260 -122 338 -100 101 -281 143 -441 104z m252 -185 c47 -24 89 -78
99 -129 l7 -32 -237 0 -237 0 6 23 c24 77 69 128 137 154 51 19 174 11 225
-16z"/>
<path fill="#fff" d="M6009 1977 c-180 -51 -282 -212 -283 -447 -1 -213 67 -356 202 -428
143 -76 324 -56 431 49 l41 39 0 -34 c0 -65 2 -66 111 -66 l99 0 0 435 0 435
-100 0 -100 0 0 -44 c0 -75 -8 -80 -44 -33 -49 64 -124 98 -227 103 -51 2
-102 -1 -130 -9z m266 -186 c80 -36 124 -113 132 -232 10 -138 -34 -243 -124
-296 -40 -24 -59 -28 -119 -28 -61 0 -77 4 -120 30 -66 41 -103 115 -111 220
-11 140 40 260 128 303 57 28 156 30 214 3z"/>
<path fill="#fff" d="M7205 1971 c-44 -20 -72 -47 -104 -101 l-21 -35 0 63 0 62 -100 0
-100 0 0 -435 0 -435 100 0 100 0 0 238 c0 258 9 346 43 406 35 62 68 81 140
81 38 -1 74 -7 93 -18 l32 -16 30 73 c17 41 33 80 34 87 4 17 -95 48 -157 48
-28 0 -67 -7 -90 -18z"/>
<path fill="#fff" d="M7970 1975 c-67 -19 -140 -65 -179 -113 l-30 -37 -1 68 0 67 -95 0
-95 0 0 -435 0 -435 99 0 99 0 4 278 c4 313 9 335 79 396 46 39 97 56 170 56
82 -1 135 -29 162 -87 21 -46 22 -63 25 -345 l3 -298 100 0 100 0 -3 353 -3
352 -25 49 c-48 95 -127 137 -265 142 -60 3 -108 -1 -145 -11z"/>
<path fill="#fff" d="M10905 1976 c-81 -20 -144 -55 -204 -116 -92 -91 -131 -193 -131
-340 0 -177 61 -304 185 -390 129 -89 354 -97 509 -18 50 26 128 98 166 156
l30 45 -43 24 c-23 14 -61 35 -84 49 l-42 24 -15 -28 c-25 -48 -94 -110 -143
-126 -59 -20 -163 -21 -211 0 -20 8 -50 27 -66 42 -36 34 -76 117 -76 159 l0
33 343 2 342 3 3 39 c5 60 -17 168 -47 233 -34 71 -107 145 -175 177 -94 44
-236 58 -341 32z m252 -185 c47 -24 89 -78 99 -129 l7 -32 -237 0 -236 0 6 28
c15 64 72 126 139 151 48 17 173 8 222 -18z"/>
<path fill="#fff" d="M9180 1525 l0 -435 100 0 100 0 0 435 0 435 -100 0 -100 0 0 -435z"/>
</g>
</svg>
